<svg width="32" height="16" xmlns="http://www.w3.org/2000/svg">

 <g>
  <title>background</title>
  <rect fill="none" id="canvas_background" height="18" width="34" y="-1" x="-1"/>
 </g>
 <g>
  <title>Layer 1</title>
  <g id="Arrow_Dotted_Right">
   <path id="svg_1" fill-rule="evenodd" fill="#d2b5b2" d="m23.0912,0.57412c0.147,-0.366 -0.056,0.134 0,0l0,0z" clip-rule="evenodd"/>
   <path id="svg_2" fill-rule="evenodd" fill="#d2b5b2" d="m31.7142,7.28712l-6.989,-7.029c-0.494,-0.518 -1.369,-0.344 -1.634,0.315c-0.056,0.134 -0.079,0.276 -0.075,0.419l0,13.98c-0.024,0.887 1.07,1.38 1.702,0.742l6.996,-6.999c0.381,-0.385 0.381,-1.042 0,-1.428zm-6.714,5.276l0,-9.118l4.595,4.556l-4.595,4.562z" clip-rule="evenodd"/>
   <path id="svg_3" fill-rule="evenodd" fill="#d2b5b2" d="m19.0002,5.00412c-1.657,0 -3,1.343 -3,3s1.343,3 3,3c1.657,0 3,-1.343 3,-3s-1.343,-3 -3,-3zm0,4c-0.552,0 -1,-0.448 -1,-1s0.448,-1 1,-1s1,0.448 1,1s-0.448,1 -1,1z" clip-rule="evenodd"/>
   <path id="svg_4" fill-rule="evenodd" fill="#d2b5b2" d="m11.0002,5.00412c-1.657,0 -3,1.343 -3,3s1.343,3 3,3c1.657,0 3,-1.343 3,-3s-1.343,-3 -3,-3zm0,4c-0.552,0 -1,-0.448 -1,-1s0.448,-1 1,-1s1,0.448 1,1s-0.448,1 -1,1z" clip-rule="evenodd"/>
   <path id="svg_5" fill-rule="evenodd" fill="#d2b5b2" d="m3.0002,5.00412c-1.657,0 -3,1.343 -3,3s1.343,3 3,3c1.657,0 3,-1.343 3,-3s-1.343,-3 -3,-3zm0,4c-0.552,0 -1,-0.448 -1,-1s0.448,-1 1,-1s1,0.448 1,1s-0.448,1 -1,1z" clip-rule="evenodd"/>
  </g>
  <g id="svg_6"/>
  <g id="svg_7"/>
  <g id="svg_8"/>
  <g id="svg_9"/>
  <g id="svg_10"/>
  <g id="svg_11"/>
 </g>
</svg>