<?xml version="1.0" ?><!DOCTYPE svg  PUBLIC '-//W3C//DTD SVG 1.1//EN'  'http://www.w3.org/Graphics/SVG/1.1/DTD/svg11.dtd'><svg enable-background="new 0 0 32 32" height="32px" id="Слой_1" version="1.1" viewBox="0 0 32 32" width="32px" xml:space="preserve" xmlns="http://www.w3.org/2000/svg" xmlns:xlink="http://www.w3.org/1999/xlink"><g id="Arrow_Dotted_Right"><path clip-rule="evenodd" d="M23.406,23.067C23.772,23.214,23.272,23.011,23.406,23.067   L23.406,23.067z" fill="#121313" fill-rule="evenodd"/><path clip-rule="evenodd" d="M16.693,31.69l7.029-6.989c0.518-0.494,0.344-1.369-0.315-1.634   c-0.134-0.056-0.276-0.079-0.419-0.075l-13.98,0c-0.887-0.024-1.38,1.07-0.742,1.702l6.999,6.996   C15.65,32.072,16.307,32.072,16.693,31.69z M11.417,24.976h9.118l-4.556,4.595L11.417,24.976z" fill="#fff" fill-rule="evenodd"/><path clip-rule="evenodd" d="M18.976,18.976c0-1.657-1.343-3-3-3s-3,1.343-3,3   c0,1.657,1.343,3,3,3S18.976,20.633,18.976,18.976z M14.976,18.976c0-0.552,0.448-1,1-1s1,0.448,1,1s-0.448,1-1,1   S14.976,19.528,14.976,18.976z" fill="#fff" fill-rule="evenodd"/><path clip-rule="evenodd" d="M18.976,10.976c0-1.657-1.343-3-3-3s-3,1.343-3,3   c0,1.657,1.343,3,3,3S18.976,12.633,18.976,10.976z M14.976,10.976c0-0.552,0.448-1,1-1s1,0.448,1,1s-0.448,1-1,1   S14.976,11.528,14.976,10.976z" fill="#fff" fill-rule="evenodd"/><path clip-rule="evenodd" d="M18.976,2.976c0-1.657-1.343-3-3-3c-1.657,0-3,1.343-3,3   c0,1.657,1.343,3,3,3S18.976,4.633,18.976,2.976z M14.976,2.976c0-0.552,0.448-1,1-1s1,0.448,1,1s-0.448,1-1,1   S14.976,3.528,14.976,2.976z" fill="#fff" fill-rule="evenodd"/></g><g/><g/><g/><g/><g/><g/></svg>