<?xml version="1.0" encoding="UTF-8"?>
<svg xmlns="http://www.w3.org/2000/svg" viewBox="0 0 64 64" width="512" height="512" fill="#ffffff"><g id="book-favortie-user_interface-notebook-star" data-name="book-favortie-user interface-notebook-star"><path d="M19,55H51a3.009,3.009,0,0,0,3-3V51a4.985,4.985,0,0,1-3,1H14a4,4,0,0,0,0,8H51a3.009,3.009,0,0,0,3-3V55.97A4.924,4.924,0,0,1,51,57H19a1,1,0,0,1,0-2Zm-4,2H13a1,1,0,0,1,0-2h2a1,1,0,0,1,0,2Z"/><path d="M33.73,26.618,32,21.292l0-.012L30.27,26.618A2,2,0,0,1,28.367,28h-5.6L27.3,31.292a2,2,0,0,1,.726,2.235l-1.73,5.327,4.53-3.292a2,2,0,0,1,2.351,0l4.532,3.292-1.731-5.326a2,2,0,0,1,.726-2.236L41.233,28h-5.6A2,2,0,0,1,33.73,26.618Z"/><path d="M19.38,14.22a.984.984,0,0,1,1.24,0L24,16.92V4H16V16.92Z"/><path d="M54,7a3.009,3.009,0,0,0-3-3H26V19a1,1,0,0,1-.57.9A.907.907,0,0,1,25,20a.961.961,0,0,1-.62-.22L20,16.28l-4.38,3.5a.981.981,0,0,1-1.05.12A1,1,0,0,1,14,19V4H13a3.009,3.009,0,0,0-3,3V51.54A5.979,5.979,0,0,1,14,50H51a3.009,3.009,0,0,0,3-3ZM42.409,29.618,37.878,32.91l1.73,5.326a1.97,1.97,0,0,1-.726,2.236,1.971,1.971,0,0,1-2.351,0L32,37.18l-4.531,3.292a2,2,0,0,1-3.077-2.236l1.73-5.326-4.531-3.292A2,2,0,0,1,22.767,26h5.6L30.1,20.674a2,2,0,0,1,3.8,0L35.633,26h5.6a2,2,0,0,1,1.176,3.618ZM50,43a3,3,0,0,1-3,3H44a1,1,0,0,1,0-2h3a1,1,0,0,0,1-1V40a1,1,0,0,1,2,0Z"/></g></svg>
