<svg height="100%" width="100%" id="bg-svg" viewBox="0 0 1440 400" xmlns="http://www.w3.org/2000/svg" class="transition duration-300 ease-in-out delay-150"><path d="M 0,400 C 0,400 0,133 0,133 C 70.02335967021642,144.9388526279629 140.04671934043284,156.8777052559258 219,143 C 297.95328065956716,129.1222947440742 385.836482308485,89.42803160425969 440,93 C 494.163517691515,96.57196839574031 514.6073514256269,143.4101683270354 579,166 C 643.3926485743731,188.5898316729646 751.7341119890071,186.93129508759876 833,167 C 914.2658880109929,147.06870491240124 968.4562006183442,108.86465132256956 1040,108 C 1111.5437993816558,107.13534867743044 1200.4410855376161,143.610099622123 1270,154 C 1339.5589144623839,164.389900377877 1389.7794572311918,148.6949501889385 1440,133 C 1440,133 1440,400 1440,400 Z" stroke="none" stroke-width="0" fill="#a0c1b888" class="transition-all duration-300 ease-in-out delay-150"></path><path d="M 0,400 C 0,400 0,266 0,266 C 84.81071796633458,255.4386808656819 169.62143593266916,244.8773617313638 232,235 C 294.37856406733084,225.1226382686362 334.3249742356579,215.9292339402267 405,236 C 475.6750257643421,256.0707660597733 577.0786671246993,305.4057025077293 649,313 C 720.9213328753007,320.5942974922707 763.3603572655446,286.4479560288561 815,261 C 866.6396427344554,235.55204397114392 927.4799038131225,218.80247337684648 1001,222 C 1074.5200961868775,225.19752662315352 1160.720027481965,248.34215046375812 1236,259 C 1311.279972518035,269.6578495362419 1375.6399862590174,267.82892476812094 1440,266 C 1440,266 1440,400 1440,400 Z" stroke="none" stroke-width="0" fill="#a0c1b8ff" class="transition-all duration-300 ease-in-out delay-150"></path></svg>