<svg height="100%" width="100%" id="bg-svg" viewBox="0 0 1440 400" xmlns="http://www.w3.org/2000/svg" class="transition duration-300 ease-in-out delay-150"><path d="M 0,400 C 0,400 0,133 0,133 C 116.17224880382773,151.86124401913878 232.34449760765546,170.72248803827753 337,170 C 441.65550239234454,169.27751196172247 534.7942583732058,148.9712918660287 629,130 C 723.2057416267942,111.02870813397129 818.4784688995214,93.39234449760765 908,107 C 997.5215311004786,120.60765550239235 1081.2918660287082,165.45933014354068 1169,175 C 1256.7081339712918,184.54066985645932 1348.3540669856459,158.77033492822966 1440,133 C 1440,133 1440,400 1440,400 Z" stroke="none" stroke-width="0" fill="#9c557988" class="transition-all duration-300 ease-in-out delay-150"></path><path d="M 0,400 C 0,400 0,266 0,266 C 85.88516746411483,291.1578947368421 171.77033492822966,316.3157894736842 264,307 C 356.22966507177034,297.6842105263158 454.8038277511962,253.89473684210526 550,255 C 645.1961722488038,256.10526315789474 737.0143540669856,302.10526315789474 827,303 C 916.9856459330144,303.89473684210526 1005.1387559808613,259.68421052631584 1107,246 C 1208.8612440191387,232.3157894736842 1324.4306220095693,249.15789473684208 1440,266 C 1440,266 1440,400 1440,400 Z" stroke="none" stroke-width="0" fill="#9c5579ff" class="transition-all duration-300 ease-in-out delay-150"></path></svg>