<svg height="100%" width="100%" id="bg-svg" viewBox="0 0 1440 400" xmlns="http://www.w3.org/2000/svg" class="transition duration-300 ease-in-out delay-150"><path d="M 0,400 C 0,400 0,133 0,133 C 69.57894736842107,164.2535885167464 139.15789473684214,195.5071770334928 251,178 C 362.84210526315786,160.4928229665072 516.9473684210526,94.2248803827751 623,86 C 729.0526315789474,77.7751196172249 787.0526315789474,127.59330143540672 864,135 C 940.9473684210526,142.40669856459328 1036.842105263158,107.40191387559808 1136,100 C 1235.157894736842,92.59808612440192 1337.578947368421,112.79904306220095 1440,133 C 1440,133 1440,400 1440,400 Z" stroke="none" stroke-width="0" fill="#ea907a88" class="transition-all duration-300 ease-in-out delay-150"></path><path d="M 0,400 C 0,400 0,266 0,266 C 120.71770334928232,249.26315789473685 241.43540669856463,232.5263157894737 341,232 C 440.56459330143537,231.4736842105263 518.9760765550238,247.15789473684208 602,268 C 685.0239234449762,288.8421052631579 772.6602870813397,314.8421052631579 858,300 C 943.3397129186603,285.1578947368421 1026.3827751196172,229.47368421052633 1123,217 C 1219.6172248803828,204.52631578947367 1329.8086124401914,235.26315789473682 1440,266 C 1440,266 1440,400 1440,400 Z" stroke="none" stroke-width="0" fill="#ea907aff" class="transition-all duration-300 ease-in-out delay-150"></path></svg>