<svg height="100%" width="100%" id="bg-svg" viewBox="0 0 1440 400" xmlns="http://www.w3.org/2000/svg" class="transition duration-300 ease-in-out delay-150"><path d="M 0,400 C 0,400 0,133 0,133 C 90.28461538461539,159.06666666666666 180.56923076923078,185.13333333333335 265,180 C 349.4307692307692,174.86666666666665 428.0076923076923,138.5333333333333 496,132 C 563.9923076923077,125.46666666666668 621.4,148.73333333333335 711,164 C 800.6,179.26666666666665 922.3923076923077,186.53333333333333 997,171 C 1071.6076923076923,155.46666666666667 1099.0307692307692,117.13333333333334 1165,107 C 1230.9692307692308,96.86666666666666 1335.4846153846154,114.93333333333334 1440,133 C 1440,133 1440,400 1440,400 Z" stroke="none" stroke-width="0" fill="#fbc68788" class="transition-all duration-300 ease-in-out delay-150"></path><path d="M 0,400 C 0,400 0,266 0,266 C 90.15897435897435,251.14615384615385 180.3179487179487,236.2923076923077 266,244 C 351.6820512820513,251.7076923076923 432.88717948717954,281.9769230769231 503,286 C 573.1128205128205,290.0230769230769 632.1333333333332,267.80000000000007 705,248 C 777.8666666666668,228.19999999999996 864.5794871794872,210.8230769230769 959,218 C 1053.4205128205128,225.1769230769231 1155.5487179487181,256.9076923076923 1237,269 C 1318.4512820512819,281.0923076923077 1379.225641025641,273.54615384615386 1440,266 C 1440,266 1440,400 1440,400 Z" stroke="none" stroke-width="0" fill="#fbc687ff" class="transition-all duration-300 ease-in-out delay-150"></path></svg>