<svg height="100%" width="100%" id="bg-svg" viewBox="0 0 1440 400" xmlns="http://www.w3.org/2000/svg" class="transition duration-300 ease-in-out delay-150"><path d="M 0,400 C 0,400 0,133 0,133 C 106.94615384615386,154.3897435897436 213.89230769230772,175.77948717948718 283,156 C 352.1076923076923,136.22051282051282 383.37692307692305,75.27179487179487 463,84 C 542.623076923077,92.72820512820513 670.6,171.13333333333333 760,174 C 849.4,176.86666666666667 900.2230769230769,104.1948717948718 968,86 C 1035.7769230769231,67.8051282051282 1120.5076923076922,104.0871794871795 1202,121 C 1283.4923076923078,137.9128205128205 1361.746153846154,135.45641025641027 1440,133 C 1440,133 1440,400 1440,400 Z" stroke="none" stroke-width="0" fill="#a2b8be88" class="transition-all duration-300 ease-in-out delay-150"></path><path d="M 0,400 C 0,400 0,266 0,266 C 81.20000000000002,247.18205128205128 162.40000000000003,228.36410256410255 236,222 C 309.59999999999997,215.63589743589745 375.5999999999999,221.72564102564104 453,246 C 530.4000000000001,270.27435897435896 619.2,312.73333333333335 704,303 C 788.8,293.26666666666665 869.5999999999999,231.34102564102565 945,223 C 1020.4000000000001,214.65897435897435 1090.4,259.9025641025641 1172,276 C 1253.6,292.0974358974359 1346.8,279.0487179487179 1440,266 C 1440,266 1440,400 1440,400 Z" stroke="none" stroke-width="0" fill="#a2b8beff" class="transition-all duration-300 ease-in-out delay-150"></path></svg>