<svg height="100%" width="100%" id="bg-svg" viewBox="0 0 1440 400" xmlns="http://www.w3.org/2000/svg" class="transition duration-300 ease-in-out delay-150"><path d="M 0,400 C 0,400 0,133 0,133 C 90.34449760765548,125 180.68899521531097,117 282,118 C 383.31100478468903,119 495.5885167464115,129 601,147 C 706.4114832535885,165 804.956937799043,191 905,181 C 1005.043062200957,171 1106.5837320574162,125 1196,111 C 1285.4162679425838,97 1362.7081339712918,115 1440,133 C 1440,133 1440,400 1440,400 Z" stroke="none" stroke-width="0" fill="#9f5f8088" class="transition-all duration-300 ease-in-out delay-150"></path><path d="M 0,400 C 0,400 0,266 0,266 C 84.47846889952157,235.70334928229664 168.95693779904315,205.4066985645933 279,218 C 389.04306220095685,230.5933014354067 524.6507177033492,286.0765550239234 608,286 C 691.3492822966508,285.9234449760766 722.4401913875599,230.28708133971296 816,229 C 909.5598086124401,227.71291866028704 1065.5885167464114,280.77511961722485 1180,296 C 1294.4114832535886,311.22488038277515 1367.2057416267944,288.6124401913876 1440,266 C 1440,266 1440,400 1440,400 Z" stroke="none" stroke-width="0" fill="#9f5f80ff" class="transition-all duration-300 ease-in-out delay-150"></path></svg>