<svg height="100%" width="100%" id="bg-svg" viewBox="0 0 1440 400" xmlns="http://www.w3.org/2000/svg" class="transition duration-300 ease-in-out delay-150"><path d="M 0,400 C 0,400 0,133 0,133 C 77.9794871794872,154.55897435897435 155.9589743589744,176.11794871794874 229,163 C 302.0410256410256,149.88205128205126 370.1435897435897,102.0871794871795 459,102 C 547.8564102564103,101.9128205128205 657.4666666666667,149.53333333333333 732,156 C 806.5333333333333,162.46666666666667 845.9897435897437,127.77948717948718 919,128 C 992.0102564102563,128.22051282051282 1098.5743589743588,163.34871794871793 1191,170 C 1283.4256410256412,176.65128205128207 1361.7128205128206,154.82564102564103 1440,133 C 1440,133 1440,400 1440,400 Z" stroke="none" stroke-width="0" fill="#75aaa888" class="transition-all duration-300 ease-in-out delay-150"></path><path d="M 0,400 C 0,400 0,266 0,266 C 77.86666666666665,246.73076923076923 155.7333333333333,227.46153846153848 238,235 C 320.2666666666667,242.53846153846152 406.9333333333334,276.88461538461536 483,269 C 559.0666666666666,261.11538461538464 624.5333333333334,210.99999999999997 697,216 C 769.4666666666666,221.00000000000003 848.9333333333332,281.11538461538464 924,294 C 999.0666666666668,306.88461538461536 1069.7333333333333,272.53846153846155 1155,260 C 1240.2666666666667,247.46153846153848 1340.1333333333332,256.7307692307692 1440,266 C 1440,266 1440,400 1440,400 Z" stroke="none" stroke-width="0" fill="#75aaa8ff" class="transition-all duration-300 ease-in-out delay-150"></path></svg>