<svg height="100%" width="100%" id="bg-svg" viewBox="0 0 1440 400" xmlns="http://www.w3.org/2000/svg" class="transition duration-300 ease-in-out delay-150"><path d="M 0,400 C 0,400 0,133 0,133 C 116.89952153110048,141.01913875598086 233.79904306220095,149.03827751196172 337,142 C 440.20095693779905,134.96172248803828 529.7033492822967,112.86602870813397 615,116 C 700.2966507177033,119.13397129186603 781.3875598086125,147.49760765550238 882,165 C 982.6124401913875,182.50239234449762 1102.7464114832535,189.14354066985646 1199,182 C 1295.2535885167465,174.85645933014354 1367.6267942583731,153.92822966507177 1440,133 C 1440,133 1440,400 1440,400 Z" stroke="none" stroke-width="0" fill="#c9c9c988" class="transition-all duration-300 ease-in-out delay-150"></path><path d="M 0,400 C 0,400 0,266 0,266 C 64.73684210526315,288.81339712918657 129.4736842105263,311.6267942583732 234,307 C 338.5263157894737,302.3732057416268 482.8421052631579,270.3062200956938 599,248 C 715.1578947368421,225.6937799043062 803.1578947368422,213.14832535885165 876,222 C 948.8421052631578,230.85167464114835 1006.5263157894738,261.10047846889955 1098,272 C 1189.4736842105262,282.89952153110045 1314.7368421052631,274.4497607655502 1440,266 C 1440,266 1440,400 1440,400 Z" stroke="none" stroke-width="0" fill="#c9c9c9ff" class="transition-all duration-300 ease-in-out delay-150"></path></svg>