<svg height="100%" width="100%" id="bg-svg" viewBox="0 0 1440 400" xmlns="http://www.w3.org/2000/svg" class="transition duration-300 ease-in-out delay-150"><path d="M 0,400 C 0,400 0,133 0,133 C 86.38461538461539,147.6102564102564 172.76923076923077,162.22051282051282 257,160 C 341.2307692307692,157.77948717948718 423.30769230769226,138.7282051282051 495,127 C 566.6923076923077,115.27179487179488 628,110.86666666666667 699,105 C 770,99.13333333333333 850.6923076923077,91.80512820512821 935,98 C 1019.3076923076923,104.19487179487179 1107.2307692307693,123.9128205128205 1192,132 C 1276.7692307692307,140.0871794871795 1358.3846153846152,136.54358974358973 1440,133 C 1440,133 1440,400 1440,400 Z" stroke="none" stroke-width="0" fill="#705d9188" class="transition-all duration-300 ease-in-out delay-150"></path><path d="M 0,400 C 0,400 0,266 0,266 C 58.012820512820525,291.1461538461539 116.02564102564105,316.2923076923077 196,297 C 275.97435897435895,277.7076923076923 377.91025641025635,213.97692307692307 464,217 C 550.0897435897436,220.02307692307693 620.3333333333335,289.8 711,296 C 801.6666666666665,302.2 912.7564102564104,244.82307692307694 991,238 C 1069.2435897435896,231.17692307692306 1114.6410256410256,274.9076923076923 1184,288 C 1253.3589743589744,301.0923076923077 1346.6794871794873,283.54615384615386 1440,266 C 1440,266 1440,400 1440,400 Z" stroke="none" stroke-width="0" fill="#705d91ff" class="transition-all duration-300 ease-in-out delay-150"></path></svg>