<svg height="100%" width="100%" id="bg-svg" viewBox="0 0 1440 400" xmlns="http://www.w3.org/2000/svg" class="transition duration-300 ease-in-out delay-150"><path d="M 0,400 C 0,400 0,133 0,133 C 88.10526315789477,155.38277511961724 176.21052631578954,177.76555023923444 271,175 C 365.78947368421046,172.23444976076556 467.26315789473676,144.32057416267943 556,125 C 644.7368421052632,105.67942583732057 720.7368421052633,94.95215311004785 815,111 C 909.2631578947367,127.04784688995215 1021.7894736842104,169.87081339712918 1129,178 C 1236.2105263157896,186.12918660287082 1338.1052631578948,159.56459330143542 1440,133 C 1440,133 1440,400 1440,400 Z" stroke="none" stroke-width="0" fill="#a7618588" class="transition-all duration-300 ease-in-out delay-150"></path><path d="M 0,400 C 0,400 0,266 0,266 C 120.77511961722487,240.1531100478469 241.55023923444975,214.3062200956938 338,222 C 434.44976076555025,229.6937799043062 506.57416267942585,270.9282296650718 595,274 C 683.4258373205741,277.0717703349282 788.153110047847,241.98086124401914 870,227 C 951.846889952153,212.01913875598086 1010.8133971291866,217.1483253588517 1102,227 C 1193.1866028708134,236.8516746411483 1316.5933014354068,251.42583732057415 1440,266 C 1440,266 1440,400 1440,400 Z" stroke="none" stroke-width="0" fill="#a76185ff" class="transition-all duration-300 ease-in-out delay-150"></path></svg>