<svg height="100%" width="100%" id="bg-svg" viewBox="0 0 1440 400" xmlns="http://www.w3.org/2000/svg" class="transition duration-300 ease-in-out delay-150"><path d="M 0,400 C 0,400 0,133 0,133 C 81.80861244019138,156.95215311004785 163.61722488038276,180.90430622009572 279,170 C 394.38277511961724,159.09569377990428 543.3397129186603,113.33492822966507 628,116 C 712.6602870813397,118.66507177033493 733.023923444976,169.75598086124404 817,168 C 900.976076555024,166.24401913875596 1048.5645933014355,111.64114832535886 1163,97 C 1277.4354066985645,82.35885167464114 1358.7177033492821,107.67942583732057 1440,133 C 1440,133 1440,400 1440,400 Z" stroke="none" stroke-width="0" fill="#b38e9688" class="transition-all duration-300 ease-in-out delay-150"></path><path d="M 0,400 C 0,400 0,266 0,266 C 108.47846889952152,244.8995215311005 216.95693779904303,223.79904306220098 306,218 C 395.04306220095697,212.20095693779902 464.6507177033493,221.70334928229664 569,237 C 673.3492822966507,252.29665071770336 812.4401913875597,273.38755980861237 909,282 C 1005.5598086124403,290.61244019138763 1059.5885167464116,286.7464114832536 1141,282 C 1222.4114832535884,277.2535885167464 1331.2057416267942,271.6267942583732 1440,266 C 1440,266 1440,400 1440,400 Z" stroke="none" stroke-width="0" fill="#b38e96ff" class="transition-all duration-300 ease-in-out delay-150"></path></svg>