<svg height="100%" width="100%" id="bg-svg" viewBox="0 0 1440 400" xmlns="http://www.w3.org/2000/svg" class="transition duration-300 ease-in-out delay-150"><path d="M 0,400 C 0,400 0,133 0,133 C 78.8025641025641,154.35128205128206 157.6051282051282,175.7025641025641 250,175 C 342.3948717948718,174.2974358974359 448.3820512820513,151.54102564102564 521,154 C 593.6179487179487,156.45897435897436 632.8666666666667,184.13333333333335 700,170 C 767.1333333333333,155.86666666666665 862.1512820512821,99.92564102564103 951,86 C 1039.8487179487179,72.07435897435897 1122.5282051282052,100.16410256410256 1203,115 C 1283.4717948717948,129.83589743589744 1361.7358974358974,131.41794871794872 1440,133 C 1440,133 1440,400 1440,400 Z" stroke="none" stroke-width="0" fill="#a5bdb688" class="transition-all duration-300 ease-in-out delay-150"></path><path d="M 0,400 C 0,400 0,266 0,266 C 97.82820512820513,283.66410256410256 195.65641025641025,301.3282051282051 284,286 C 372.34358974358975,270.6717948717949 451.2025641025641,222.35128205128208 520,225 C 588.7974358974359,227.64871794871792 647.5333333333332,281.26666666666665 710,285 C 772.4666666666668,288.73333333333335 838.6641025641027,242.58205128205128 932,232 C 1025.3358974358973,221.41794871794872 1145.8102564102564,246.40512820512822 1235,258 C 1324.1897435897436,269.5948717948718 1382.0948717948718,267.7974358974359 1440,266 C 1440,266 1440,400 1440,400 Z" stroke="none" stroke-width="0" fill="#a5bdb6ff" class="transition-all duration-300 ease-in-out delay-150"></path></svg>