<svg height="100%" width="100%" id="bg-svg" viewBox="0 0 1440 400" xmlns="http://www.w3.org/2000/svg" class="transition duration-300 ease-in-out delay-150"><path d="M 0,400 C 0,400 0,133 0,133 C 90.81025641025641,130.55897435897435 181.62051282051283,128.11794871794874 255,138 C 328.37948717948717,147.88205128205126 384.3282051282051,170.0871794871795 458,173 C 531.6717948717949,175.9128205128205 623.0666666666667,159.53333333333333 717,138 C 810.9333333333333,116.46666666666667 907.4051282051282,89.77948717948716 990,98 C 1072.5948717948718,106.22051282051284 1141.3128205128205,149.34871794871796 1214,161 C 1286.6871794871795,172.65128205128204 1363.3435897435897,152.825641025641 1440,133 C 1440,133 1440,400 1440,400 Z" stroke="none" stroke-width="0" fill="#f4f7c588" class="transition-all duration-300 ease-in-out delay-150"></path><path d="M 0,400 C 0,400 0,266 0,266 C 66.98205128205129,251.4974358974359 133.96410256410257,236.9948717948718 205,226 C 276.0358974358974,215.0051282051282 351.125641025641,207.51794871794868 441,220 C 530.874358974359,232.48205128205132 635.5333333333334,264.93333333333334 717,277 C 798.4666666666666,289.06666666666666 856.7410256410255,280.74871794871797 943,269 C 1029.2589743589745,257.25128205128203 1143.5025641025643,242.07179487179485 1231,241 C 1318.4974358974357,239.92820512820515 1379.248717948718,252.96410256410257 1440,266 C 1440,266 1440,400 1440,400 Z" stroke="none" stroke-width="0" fill="#f4f7c5ff" class="transition-all duration-300 ease-in-out delay-150"></path></svg>