<svg height="100%" width="100%" id="bg-svg" viewBox="0 0 1440 400" xmlns="http://www.w3.org/2000/svg" class="transition duration-300 ease-in-out delay-150"><path d="M 0,400 C 0,400 0,133 0,133 C 88.87081339712918,161.1244019138756 177.74162679425837,189.24880382775117 290,177 C 402.25837320574163,164.75119617224883 537.9043062200957,112.12918660287082 627,108 C 716.0956937799043,103.87081339712918 758.6411483253588,148.23444976076559 836,148 C 913.3588516746412,147.76555023923441 1025.531100478469,102.93301435406698 1132,93 C 1238.468899521531,83.06698564593302 1339.2344497607655,108.03349282296651 1440,133 C 1440,133 1440,400 1440,400 Z" stroke="none" stroke-width="0" fill="#ea907a88" class="transition-all duration-300 ease-in-out delay-150"></path><path d="M 0,400 C 0,400 0,266 0,266 C 114.73684210526315,252 229.4736842105263,238 320,240 C 410.5263157894737,242 476.8421052631579,260 562,262 C 647.1578947368421,264 751.1578947368422,250.00000000000003 862,239 C 972.8421052631578,227.99999999999997 1090.5263157894735,220 1188,225 C 1285.4736842105265,230 1362.7368421052633,248 1440,266 C 1440,266 1440,400 1440,400 Z" stroke="none" stroke-width="0" fill="#ea907aff" class="transition-all duration-300 ease-in-out delay-150"></path></svg>