<svg height="100%" width="100%" id="bg-svg" viewBox="0 0 1440 400" xmlns="http://www.w3.org/2000/svg" class="transition duration-300 ease-in-out delay-150"><path d="M 0,400 C 0,400 0,133 0,133 C 81.85897435897436,164.86923076923077 163.71794871794873,196.73846153846154 242,182 C 320.28205128205127,167.26153846153846 394.98717948717945,105.91538461538461 481,107 C 567.0128205128206,108.08461538461539 664.3333333333334,171.60000000000002 748,180 C 831.6666666666666,188.39999999999998 901.6794871794871,141.6846153846154 970,123 C 1038.320512820513,104.3153846153846 1104.948717948718,113.66153846153846 1183,120 C 1261.051282051282,126.33846153846154 1350.525641025641,129.66923076923078 1440,133 C 1440,133 1440,400 1440,400 Z" stroke="none" stroke-width="0" fill="#ffd2b388" class="transition-all duration-300 ease-in-out delay-150"></path><path d="M 0,400 C 0,400 0,266 0,266 C 82.97179487179488,246.13846153846154 165.94358974358977,226.27692307692308 250,217 C 334.05641025641023,207.72307692307692 419.19743589743587,209.03076923076918 503,230 C 586.8025641025641,250.96923076923082 669.2666666666667,291.6000000000001 736,297 C 802.7333333333333,302.3999999999999 853.7358974358974,272.5692307692307 941,272 C 1028.2641025641026,271.4307692307693 1151.7897435897435,300.12307692307695 1241,304 C 1330.2102564102565,307.87692307692305 1385.1051282051283,286.9384615384615 1440,266 C 1440,266 1440,400 1440,400 Z" stroke="none" stroke-width="0" fill="#ffd2b3ff" class="transition-all duration-300 ease-in-out delay-150"></path></svg>