<svg height="100%" width="100%" id="bg-svg" viewBox="0 0 1440 400" xmlns="http://www.w3.org/2000/svg" class="transition duration-300 ease-in-out delay-150"><path d="M 0,400 C 0,400 0,133 0,133 C 77.04871794871795,143.4820512820513 154.0974358974359,153.96410256410257 233,137 C 311.9025641025641,120.03589743589744 392.6589743589743,75.62564102564102 470,89 C 547.3410256410257,102.37435897435898 621.2666666666667,173.53333333333333 701,179 C 780.7333333333333,184.46666666666667 866.2743589743591,124.24102564102564 959,113 C 1051.725641025641,101.75897435897436 1151.6358974358975,139.50256410256412 1233,151 C 1314.3641025641025,162.49743589743588 1377.1820512820514,147.74871794871794 1440,133 C 1440,133 1440,400 1440,400 Z" stroke="none" stroke-width="0" fill="#ea907a88" class="transition-all duration-300 ease-in-out delay-150"></path><path d="M 0,400 C 0,400 0,266 0,266 C 90.4897435897436,279.12051282051283 180.9794871794872,292.24102564102566 258,277 C 335.0205128205128,261.75897435897434 398.57179487179485,218.15641025641028 461,223 C 523.4282051282051,227.84358974358972 584.7333333333333,281.1333333333333 676,285 C 767.2666666666667,288.8666666666667 888.4948717948719,243.3102564102564 982,244 C 1075.5051282051281,244.6897435897436 1141.2871794871794,291.6256410256411 1213,303 C 1284.7128205128206,314.3743589743589 1362.3564102564103,290.1871794871795 1440,266 C 1440,266 1440,400 1440,400 Z" stroke="none" stroke-width="0" fill="#ea907aff" class="transition-all duration-300 ease-in-out delay-150"></path></svg>