<svg height="100%" width="100%" id="bg-svg" viewBox="0 0 1440 400" xmlns="http://www.w3.org/2000/svg" class="transition duration-300 ease-in-out delay-150"><path d="M 0,400 C 0,400 0,133 0,133 C 96.00956937799043,153.14354066985646 192.01913875598086,173.2870813397129 285,177 C 377.98086124401914,180.7129186602871 467.93301435406704,167.99521531100478 575,154 C 682.066985645933,140.00478468899522 806.2488038277513,124.73205741626795 903,111 C 999.7511961722487,97.26794258373205 1069.0717703349283,85.07655502392345 1154,89 C 1238.9282296650717,92.92344497607655 1339.4641148325359,112.96172248803828 1440,133 C 1440,133 1440,400 1440,400 Z" stroke="none" stroke-width="0" fill="#91c9bf88" class="transition-all duration-300 ease-in-out delay-150"></path><path d="M 0,400 C 0,400 0,266 0,266 C 116.79425837320574,285.0143540669856 233.58851674641147,304.02870813397124 334,304 C 434.41148325358853,303.97129186602876 518.4401913875598,284.8995215311005 601,263 C 683.5598086124402,241.1004784688995 764.6507177033493,216.37320574162675 850,226 C 935.3492822966507,235.62679425837325 1024.956937799043,279.60765550239233 1124,292 C 1223.043062200957,304.39234449760767 1331.5215311004786,285.1961722488038 1440,266 C 1440,266 1440,400 1440,400 Z" stroke="none" stroke-width="0" fill="#91c9bfff" class="transition-all duration-300 ease-in-out delay-150"></path></svg>