<svg height="100%" width="100%" id="bg-svg" viewBox="0 0 1440 400" xmlns="http://www.w3.org/2000/svg" class="transition duration-300 ease-in-out delay-150"><path d="M 0,400 C 0,400 0,133 0,133 C 71.49487179487181,161.65128205128207 142.98974358974363,190.3025641025641 222,173 C 301.0102564102564,155.6974358974359 387.53589743589737,92.44102564102563 481,90 C 574.4641025641026,87.55897435897437 674.8666666666666,145.93333333333334 754,152 C 833.1333333333334,158.06666666666666 890.9974358974359,111.82564102564102 970,111 C 1049.002564102564,110.17435897435898 1149.14358974359,154.7641025641026 1231,166 C 1312.85641025641,177.2358974358974 1376.428205128205,155.1179487179487 1440,133 C 1440,133 1440,400 1440,400 Z" stroke="none" stroke-width="0" fill="#81838488" class="transition-all duration-300 ease-in-out delay-150"></path><path d="M 0,400 C 0,400 0,266 0,266 C 65.24615384615385,247.66410256410256 130.4923076923077,229.32820512820513 214,232 C 297.5076923076923,234.67179487179487 399.27692307692314,258.35128205128206 497,279 C 594.7230769230769,299.64871794871794 688.4,317.2666666666667 752,296 C 815.6,274.7333333333333 849.1230769230771,214.58205128205128 926,218 C 1002.8769230769229,221.41794871794872 1123.107692307692,288.40512820512816 1216,307 C 1308.892307692308,325.59487179487184 1374.446153846154,295.7974358974359 1440,266 C 1440,266 1440,400 1440,400 Z" stroke="none" stroke-width="0" fill="#818384ff" class="transition-all duration-300 ease-in-out delay-150"></path></svg>