<svg height="100%" width="100%" id="bg-svg" viewBox="0 0 1440 400" xmlns="http://www.w3.org/2000/svg" class="transition duration-300 ease-in-out delay-150"><path d="M 0,400 C 0,400 0,133 0,133 C 81.14871794871792,130.32564102564103 162.29743589743583,127.65128205128205 255,118 C 347.70256410256417,108.34871794871795 451.9589743589744,91.72051282051282 523,85 C 594.0410256410256,78.27948717948718 631.8666666666667,81.46666666666665 704,102 C 776.1333333333333,122.53333333333335 882.574358974359,160.41282051282053 972,162 C 1061.425641025641,163.58717948717947 1133.8358974358973,128.88205128205126 1209,118 C 1284.1641025641027,107.11794871794874 1362.0820512820515,120.05897435897437 1440,133 C 1440,133 1440,400 1440,400 Z" stroke="none" stroke-width="0" fill="#f4f7c588" class="transition-all duration-300 ease-in-out delay-150"></path><path d="M 0,400 C 0,400 0,266 0,266 C 88.72820512820513,234.81025641025641 177.45641025641027,203.62051282051283 251,218 C 324.54358974358973,232.37948717948717 382.90256410256416,292.3282051282052 459,299 C 535.0974358974358,305.6717948717948 628.9333333333333,259.0666666666667 708,257 C 787.0666666666667,254.9333333333333 851.3641025641026,297.4051282051282 935,298 C 1018.6358974358974,298.5948717948718 1121.6102564102564,257.3128205128205 1209,245 C 1296.3897435897436,232.68717948717952 1368.1948717948717,249.34358974358975 1440,266 C 1440,266 1440,400 1440,400 Z" stroke="none" stroke-width="0" fill="#f4f7c5ff" class="transition-all duration-300 ease-in-out delay-150"></path></svg>